<mxfile host="app.diagrams.net" modified="2023-01-27T01:15:18.293Z" agent="5.0 (Windows NT 6.1; Win64; x64) AppleWebKit/537.36 (KHTML, like Gecko) Chrome/100.0.4896.127 Safari/537.36" etag="NjK0YqnEFMxl4trFyuty" version="20.8.5" type="github">
  <diagram id="A6B_XesYhqcnKX7qGVZg" name="第 1 页">
    <mxGraphModel dx="2261" dy="1971" grid="1" gridSize="10" guides="1" tooltips="1" connect="1" arrows="1" fold="1" page="1" pageScale="1" pageWidth="827" pageHeight="1169" math="0" shadow="0">
      <root>
        <mxCell id="0" />
        <mxCell id="1" parent="0" />
        <mxCell id="S2ZTGcipn144mi96btQD-1" value="自我救赎" style="rounded=1;whiteSpace=wrap;html=1;" parent="1" vertex="1">
          <mxGeometry x="354" y="490" width="120" height="60" as="geometry" />
        </mxCell>
        <mxCell id="S2ZTGcipn144mi96btQD-2" value="财富" style="rounded=1;whiteSpace=wrap;html=1;" parent="1" vertex="1">
          <mxGeometry x="380" y="170" width="120" height="60" as="geometry" />
        </mxCell>
        <mxCell id="S2ZTGcipn144mi96btQD-3" value="幸福" style="rounded=1;whiteSpace=wrap;html=1;" parent="1" vertex="1">
          <mxGeometry x="340" y="320" width="120" height="60" as="geometry" />
        </mxCell>
        <mxCell id="S2ZTGcipn144mi96btQD-4" value="沟通" style="rounded=1;whiteSpace=wrap;html=1;" parent="1" vertex="1">
          <mxGeometry x="-90" y="80" width="120" height="60" as="geometry" />
        </mxCell>
        <mxCell id="S2ZTGcipn144mi96btQD-5" value="婚姻" style="rounded=1;whiteSpace=wrap;html=1;" parent="1" vertex="1">
          <mxGeometry x="-90" y="-10" width="120" height="60" as="geometry" />
        </mxCell>
        <mxCell id="S2ZTGcipn144mi96btQD-6" value="过年回家&amp;nbsp; 车" style="rounded=1;whiteSpace=wrap;html=1;" parent="1" vertex="1">
          <mxGeometry x="270" y="-210" width="120" height="60" as="geometry" />
        </mxCell>
        <mxCell id="S2ZTGcipn144mi96btQD-7" value="杠杆" style="rounded=1;whiteSpace=wrap;html=1;" parent="1" vertex="1">
          <mxGeometry x="400" y="-140" width="120" height="60" as="geometry" />
        </mxCell>
        <mxCell id="S2ZTGcipn144mi96btQD-8" value="趋势" style="rounded=1;whiteSpace=wrap;html=1;" parent="1" vertex="1">
          <mxGeometry x="380" y="70" width="120" height="60" as="geometry" />
        </mxCell>
        <mxCell id="S2ZTGcipn144mi96btQD-9" value="自我优势" style="rounded=1;whiteSpace=wrap;html=1;" parent="1" vertex="1">
          <mxGeometry x="812" y="90" width="120" height="60" as="geometry" />
        </mxCell>
        <mxCell id="S2ZTGcipn144mi96btQD-10" value="兴趣擅长" style="rounded=1;whiteSpace=wrap;html=1;" parent="1" vertex="1">
          <mxGeometry x="812" y="180" width="120" height="60" as="geometry" />
        </mxCell>
        <mxCell id="S2ZTGcipn144mi96btQD-11" value="灵感" style="rounded=1;whiteSpace=wrap;html=1;" parent="1" vertex="1">
          <mxGeometry x="720" width="120" height="60" as="geometry" />
        </mxCell>
        <mxCell id="S2ZTGcipn144mi96btQD-12" value="房子" style="rounded=1;whiteSpace=wrap;html=1;" parent="1" vertex="1">
          <mxGeometry x="410" y="-210" width="120" height="60" as="geometry" />
        </mxCell>
        <mxCell id="Vlxko-CSEtLI1nFvjdNb-1" value="web3.0" style="rounded=1;whiteSpace=wrap;html=1;" parent="1" vertex="1">
          <mxGeometry x="742" y="-160" width="120" height="60" as="geometry" />
        </mxCell>
        <mxCell id="Vlxko-CSEtLI1nFvjdNb-2" value="chatGpt" style="rounded=1;whiteSpace=wrap;html=1;" parent="1" vertex="1">
          <mxGeometry x="872" y="-160" width="120" height="60" as="geometry" />
        </mxCell>
        <mxCell id="D5oO9VVZSlC_CnEWRoHH-1" value="快乐" style="rounded=1;whiteSpace=wrap;html=1;" vertex="1" parent="1">
          <mxGeometry x="-240" y="80" width="120" height="60" as="geometry" />
        </mxCell>
        <mxCell id="D5oO9VVZSlC_CnEWRoHH-2" value="相处" style="rounded=1;whiteSpace=wrap;html=1;" vertex="1" parent="1">
          <mxGeometry x="50" y="80" width="120" height="60" as="geometry" />
        </mxCell>
        <mxCell id="D5oO9VVZSlC_CnEWRoHH-3" value="机会" style="rounded=1;whiteSpace=wrap;html=1;" vertex="1" parent="1">
          <mxGeometry x="250" y="-140" width="120" height="60" as="geometry" />
        </mxCell>
        <mxCell id="D5oO9VVZSlC_CnEWRoHH-4" value="资源、布局" style="rounded=1;whiteSpace=wrap;html=1;" vertex="1" parent="1">
          <mxGeometry x="852" width="120" height="60" as="geometry" />
        </mxCell>
        <mxCell id="D5oO9VVZSlC_CnEWRoHH-6" value="生命的意义" style="ellipse;whiteSpace=wrap;html=1;" vertex="1" parent="1">
          <mxGeometry x="354" y="550" width="64" height="60" as="geometry" />
        </mxCell>
        <mxCell id="D5oO9VVZSlC_CnEWRoHH-7" value="活在当下&lt;br&gt;不念过去、不惧未来" style="ellipse;whiteSpace=wrap;html=1;" vertex="1" parent="1">
          <mxGeometry x="418" y="550" width="64" height="60" as="geometry" />
        </mxCell>
        <mxCell id="D5oO9VVZSlC_CnEWRoHH-8" value="关爱自己" style="ellipse;whiteSpace=wrap;html=1;" vertex="1" parent="1">
          <mxGeometry x="326" y="440" width="64" height="60" as="geometry" />
        </mxCell>
        <mxCell id="D5oO9VVZSlC_CnEWRoHH-10" value="看清生活的本质、仍然热爱" style="ellipse;whiteSpace=wrap;html=1;" vertex="1" parent="1">
          <mxGeometry x="428" y="440" width="64" height="60" as="geometry" />
        </mxCell>
        <mxCell id="D5oO9VVZSlC_CnEWRoHH-11" value="欲望是主动选择的不开心" style="ellipse;whiteSpace=wrap;html=1;" vertex="1" parent="1">
          <mxGeometry x="276" y="300" width="64" height="60" as="geometry" />
        </mxCell>
        <mxCell id="D5oO9VVZSlC_CnEWRoHH-12" value="活在当下、享受当下" style="ellipse;whiteSpace=wrap;html=1;" vertex="1" parent="1">
          <mxGeometry x="456" y="300" width="64" height="60" as="geometry" />
        </mxCell>
        <mxCell id="D5oO9VVZSlC_CnEWRoHH-13" value="生活习惯" style="ellipse;whiteSpace=wrap;html=1;" vertex="1" parent="1">
          <mxGeometry x="350" y="260" width="64" height="60" as="geometry" />
        </mxCell>
        <mxCell id="D5oO9VVZSlC_CnEWRoHH-14" value="睡后收入" style="ellipse;whiteSpace=wrap;html=1;" vertex="1" parent="1">
          <mxGeometry x="492" y="160" width="64" height="60" as="geometry" />
        </mxCell>
        <mxCell id="D5oO9VVZSlC_CnEWRoHH-15" value="把自己产品化" style="rounded=1;whiteSpace=wrap;html=1;" vertex="1" parent="1">
          <mxGeometry x="380" width="120" height="60" as="geometry" />
        </mxCell>
        <mxCell id="D5oO9VVZSlC_CnEWRoHH-16" value="自己：找到自己的独特性和专长" style="ellipse;whiteSpace=wrap;html=1;" vertex="1" parent="1">
          <mxGeometry x="510" y="-40" width="64" height="60" as="geometry" />
        </mxCell>
        <mxCell id="D5oO9VVZSlC_CnEWRoHH-17" value="产品化:找到放大自我能力的杠杆" style="ellipse;whiteSpace=wrap;html=1;" vertex="1" parent="1">
          <mxGeometry x="510" y="20" width="64" height="60" as="geometry" />
        </mxCell>
      </root>
    </mxGraphModel>
  </diagram>
</mxfile>
